# AST/ASF file generated using VICON BodyLanguage
# -----------------------------------------------
:version 1.10
:name VICON
:units
  mass 1.0
  length 0.45
  angle deg
:documentation
   .ast/.asf automatically generated from VICON data using
   VICON BodyBuilder and BodyLanguage model FoxedUp or BRILLIANT.MOD
:root
   order TX TY TZ RX RY RZ
   axis XYZ
   position 0 0 0  
   orientation 0 0 0 
:bonedata
  begin
     id 1 
     name lhipjoint
     direction 0.561001 -0.76473 0.316963 
     length 2.4722 
     axis 0 0 0  XYZ
  end
  begin
     id 2 
     name lfemur
     direction 0.34202 -0.939693 0  
     length 7.59403  
     axis 0 0 20  XYZ
    dof rx ry rz
    limits (-160.0 20.0)
           (-70.0 70.0)
           (-60.0 70.0)
  end
  begin
     id 3 
     name ltibia
     direction 0.34202 -0.939693 0   
     length 7.89655   
     axis 0 0 20   XYZ
    dof rx
    limits (-10.0 170.0)
  end
  begin
     id 4 
     name lfoot
     direction 0.061296 -0.168409 0.98381   
     length 2.73287   
     axis -90 7.62852e-016 20   XYZ
    dof rx rz
    limits (-45.0 90.0)
           (-70.0 20.0)
  end
  begin
     id 5 
     name ltoes
     direction 1.53547e-011 -4.21984e-011 1   
     length 1.37057   
     axis -90 7.62852e-016 20   XYZ
    dof rx
    limits (-90.0 20.0)
  end
  begin
     id 6 
     name rhipjoint
     direction -0.559611 -0.765599 0.317323   
     length 2.46939  
     axis 0 0 0  XYZ 
  end
  begin
     id 7 
     name rfemur
     direction -0.34202 -0.939693 0   
     length 7.53712   
     axis 0 0 -20   XYZ
    dof rx ry rz
    limits (-160.0 20.0)
           (-70.0 70.0)
           (-70.0 60.0)
  end
  begin
     id 8 
     name rtibia
     direction -0.34202 -0.939693 0   
     length 8.12549   
     axis 0 0 -20   XYZ
    dof rx
    limits (-10.0 170.0)
 end
 begin
     id 9 
     name rfoot
     direction -0.066984 -0.184037 0.980634   
     length 2.67541  
     axis -90 -7.62852e-016 -20   XYZ
    dof rx rz
    limits (-45.0 90.0)
           (-20.0 70.0)
  end
  begin
     id 10 
     name rtoes
     direction -1.53549e-011 -4.21786e-011 1   
     length 1.34085   
     axis -90 -7.62852e-016 -20   XYZ
    dof rx
    limits (-90.0 20.0)
  end
  begin
     id 11 
     name lowerback
     direction -0.0522728 0.992594 -0.109658   
     length 2.05633   
     axis 0 0 0   XYZ
    dof rx ry rz
    limits (-20.0 45.0)
           (-30.0 30.0)
           (-30.0 30.0)
  end
  begin
     id 12 
     name upperback
     direction 0.00589338 0.999977 0.00335704   
     length 2.05845   
     axis 0 0 0   XYZ
    dof rx ry rz
    limits (-20.0 45.0)
           (-30.0 30.0)
           (-30.0 30.0)
  end
  begin
     id 13 
     name thorax
     direction 0.0292928 0.998059 0.0549487   
     length 2.09281   
     axis 0 0 0   XYZ
    dof rx ry rz
    limits (-20.0 45.0)
           (-30.0 30.0)
           (-30.0 30.0)
  end
  begin
     id 14 
     name lowerneck
     direction 0.0356368 0.980775 0.191858   
     length 1.84767   
     axis 0 0 0   XYZ
    dof rx ry rz
    limits (-20.0 45.0)
           (-30.0 30.0)
           (-30.0 30.0)
  end
  begin
     id 15 
     name upperneck
     direction -0.0227605 0.98931 -0.14404   
     length 1.89582   
     axis 0 0 0   XYZ
    dof rx ry rz
    limits (-20.0 45.0)
           (-30.0 30.0)
           (-30.0 30.0)
  end
  begin
     id 16
     name head
     direction -0.00932985 0.997511 -0.0698904  
     length 1.90213  
     axis 0 0 0   XYZ
    dof rx ry rz
    limits (-20.0 45.0)
           (-30.0 30.0)
           (-30.0 30.0)
  end
  begin
     id 17 
     name lclavicle
     direction 0.873442 0.479511 0.0846686  
     length 3.41193  
     axis 0 0 0   XYZ
    dof ry rz
    limits (-20.0 10.0)
           (0.0 20.0)
  end
  begin
     id 18 
     name lhumerus
     direction 1 -4.4897e-011 -5.62117e-018   
     length 5.59864   
     axis 180 -30 -90   XYZ
    dof rx ry rz
    limits (-60.0 90.0)
           (-90.0 90.0)
           (-90.0 90.0)
  end
  begin
     id 19
     name lradius
     direction 1 -4.48966e-011 -6.26295e-027   
     length 3.59542   
     axis 180 -30 -90   XYZ
    dof rx
    limits (-10.0 170.0)
  end
  begin
     id 20
     name lwrist
     direction 1 -4.48947e-011 -1.74096e-026   
     length 1.79771   
     axis 1.04567e-014 90 90   XYZ
    dof ry
    limits (-180.0 0.0)
 end
  begin
     id 21 
     name lhand
     direction 1 -4.49085e-011 -3.48469e-026   
     length 0.572014   
     axis 2.22196e-014 90 90   XYZ
    dof rx rz
    limits (-90.0 90.0)
           (-45.0 45.0)
  end
  begin
     id 22 
     name lfingers
     direction 1 -4.48884e-011 -6.96135e-026   
     length 0.461173   
     axis 4.44383e-014 90 90   XYZ
    dof rx
    limits (0.0 90.0)
  end
  begin
     id 23
     name lthumb
     direction 0.707107 -6.34976e-011 0.707107   
     length 0.662154   
     axis -90 45 -5.4397e-014   XYZ
    dof rx rz
    limits (-45.0 45.0)
           (-45.0 45.0)
  end
  begin
     id 24 
     name rclavicle
     direction -0.890242 0.443271 0.104786   
     length 3.46753  
     axis 0 0 0   XYZ 
    dof ry rz
    limits (-10.0 20.0)
           (-20.0 0.0)
  end
  begin
     id 25 
     name rhumerus
     direction -1 -4.48963e-011 -5.41723e-018  
     length 5.8094   
     axis 180 30 90   XYZ
    dof rx ry rz
    limits (-90.0 60.0)
           (-90.0 90.0)
           (-90.0 90.0)
  end
  begin
     id 26 
     name rradius
     direction -1 -4.48958e-011 -6.51059e-027   
     length 3.66953   
     axis 180 30 90   XYZ
    dof rx
    limits (-10.0 170.0)
  end
  begin
     id 27 
     name rwrist
     direction -1 -4.48975e-011 -1.74124e-026   
     length 1.83476   
     axis 1.04567e-014 -90 -90   XYZ
    dof ry
    limits (-180.0 0.0)
  end
  begin
     id 28
     name rhand
     direction -1 -4.49013e-011 -3.48326e-026   
     length 0.57843   
     axis 2.22196e-014 -90 -90   XYZ
    dof rx rz
    limits (-90.0 90.0)
           (-45.0 45.0)
  end
  begin
     id 29
     name rfingers
     direction -1 -4.49023e-011 -6.9669e-026   
     length 0.466345   
     axis 4.44383e-014 -90 -90   XYZ
    dof rx
    limits (0.0 90.0)
  end
  begin
     id 30
     name rthumb
     direction -0.707107 -6.34926e-011 0.707107   
     length 0.669581   
     axis -90 -45 5.4397e-014   XYZ
    dof rx rz
    limits (-45.0 45.0)
           (-45.0 45.0)
  end
:hierarchy
  begin
    root lhipjoint rhipjoint lowerback
    lhipjoint lfemur
    lfemur ltibia
    ltibia lfoot
    lfoot ltoes
    rhipjoint rfemur
    rfemur rtibia
    rtibia rfoot
    rfoot rtoes
    lowerback upperback
    upperback thorax
    thorax lowerneck lclavicle rclavicle
    lowerneck upperneck
    upperneck head
    lclavicle lhumerus
    lhumerus lradius
    lradius lwrist
    lwrist lhand lthumb
    lhand lfingers
    rclavicle rhumerus
    rhumerus rradius
    rradius rwrist
    rwrist rhand rthumb
    rhand rfingers
  end

#!OML:ASF H:\SkateBoarding\Project 1\Capture day 1\Session 1\Skater.ASF
:FULLY-SPECIFIED
:DEGREES
304
root 2.27336 19.6622 38.283 2.34869 46.2979 -1.08469
lowerback 7.0348 0.932913 -2.17478
upperback -1.00124 1.10306 0.983645
thorax -5.05116 0.622743 2.12005
lowerneck -7.44782 -0.521072 1.31565
upperneck 46.2411 5.184 -9.3889
head 19.5124 1.72514 -3.82743
rclavicle 3.22839e-014 -1.98785e-016
rhumerus -29.8043 -16.8668 -65.0586
rradius 29.2263
rwrist 2.6463
rhand -31.2527 -6.41284
rfingers 7.12502
rthumb -4.52713 -36.3445
lclavicle 3.22839e-014 -1.98785e-016
lhumerus -23.2731 -12.4476 77.1199
lradius 47.2229
lwrist 29.6356
lhand -23.9444 12.6383
lfingers 7.12502
lthumb 2.53103 42.603
rfemur -15.7369 -3.97487 22.518
rtibia 25.1609
rfoot -24.9842 6.28409
rtoes -1.99418
lfemur -14.1192 -23.5092 -3.70496
ltibia 22.8344
lfoot -39.7269 15.8341
ltoes -20.3975
305
root 2.20339 19.6637 38.3337 2.31733 46.3768 -0.998593
lowerback 6.98428 0.945715 -2.17002
upperback -1.02805 1.12118 0.978516
thorax -5.05134 0.631767 2.1104
lowerneck -7.45341 -0.516342 1.36427
upperneck 46.2804 5.14765 -9.30334
head 19.5319 1.73163 -3.80128
rclavicle -7.31962e-014 -1.2921e-014
rhumerus -30.1902 -16.8861 -64.791
rradius 29.4038
rwrist 2.51378
rhand -31.2977 -6.35475
rfingers 7.12502
rthumb -4.57059 -36.2854
lclavicle -7.31962e-014 -1.2921e-014
lhumerus -23.5318 -12.66 77.3079
lradius 47.4063
lwrist 29.785
lhand -23.7101 12.7094
lfingers 7.12502
lthumb 2.75731 42.6713
rfemur -15.557 -3.97942 22.4824
rtibia 24.9597
rfoot -25.0833 6.18203
rtoes -2.00926
lfemur -14.0247 -23.519 -3.75557
ltibia 22.6895
lfoot -39.6862 15.7569
ltoes -20.4348
306
root 2.13352 19.6649 38.3832 2.28725 46.4713 -0.91035
lowerback 6.93617 0.956358 -2.1709
upperback -1.05627 1.13602 0.976086
thorax -5.05437 0.639422 2.1071
lowerneck -7.4555 -0.515234 1.41364
upperneck 46.3218 5.11389 -9.23387
head 19.5535 1.73789 -3.78314
rclavicle 3.88686e-014 -1.45113e-014
rhumerus -30.6064 -16.8914 -64.4991
rradius 29.5808
rwrist 2.36969
rhand -31.369 -6.30276
rfingers 7.12502
rthumb -4.63941 -36.232
lclavicle 3.88686e-014 -1.45113e-014
lhumerus -23.7799 -12.884 77.5234
lradius 47.5484
lwrist 29.9067
lhand -23.4065 12.7806
lfingers 7.12502
lthumb 3.05051 42.7386
rfemur -15.3843 -3.98537 22.4437
rtibia 24.7708
rfoot -25.1898 6.07906
rtoes -2.01265
lfemur -13.9385 -23.5041 -3.81622
ltibia 22.5627
lfoot -39.6668 15.6006
ltoes -20.4548
307
root 2.06396 19.6655 38.4312 2.25948 46.5764 -0.819957
lowerback 6.88926 0.967977 -2.17413
upperback -1.08588 1.15195 0.974152
thorax -5.05964 0.647739 2.10549
lowerneck -7.45479 -0.518926 1.46296
upperneck 46.3647 5.07818 -9.17478
head 19.5758 1.74253 -3.77063
rclavicle -8.51233e-014 8.54774e-015
rhumerus -31.0538 -16.8908 -64.1777
rradius 29.7495
rwrist 2.23119
rhand -31.463 -6.25408
rfingers 7.12502
rthumb -4.73027 -36.1813
lclavicle -8.51233e-014 8.54774e-015
lhumerus -24.0175 -13.1195 77.7613
lradius 47.6538
lwrist 29.9962
lhand -23.0158 12.8455
lfingers 7.12502
lthumb 3.42784 42.7976
rfemur -15.2418 -4.00097 22.4035
rtibia 24.6345
rfoot -25.3044 6.00015
rtoes -2.01803
lfemur -13.8807 -23.4423 -3.8953
ltibia 22.5057
lfoot -39.6898 15.3131
ltoes -20.4493
308
root 1.99478 19.6656 38.4775 2.23744 46.6897 -0.726794
lowerback 6.84066 0.977522 -2.18126
upperback -1.11687 1.16502 0.975953
thorax -5.06542 0.654833 2.11033
lowerneck -7.45365 -0.524522 1.50856
upperneck 46.4077 5.04665 -9.12812
head 19.5995 1.74697 -3.76304
rclavicle 3.75082e-014 1.14301e-014
rhumerus -31.5249 -16.8821 -63.8274
rradius 29.9053
rwrist 2.11055
rhand -31.5711 -6.21094
rfingers 7.12502
rthumb -4.83461 -36.1358
lclavicle 3.75082e-014 1.14301e-014
lhumerus -24.2449 -13.3436 78.0197
lradius 47.7241
lwrist 30.0482
lhand -22.5296 12.8996
lfingers 7.12502
lthumb 3.89737 42.8437
rfemur -15.1163 -4.02217 22.361
rtibia 24.5164
rfoot -25.4155 5.93993
rtoes -1.98012
lfemur -13.8406 -23.311 -4.00215
ltibia 22.5002
lfoot -39.7312 14.8841
ltoes -20.4221
309
root 1.92668 19.6599 38.5212 2.22131 46.8087 -0.632575
lowerback 6.78752 0.985792 -2.18801
upperback -1.14893 1.1766 0.979568
thorax -5.06969 0.661215 2.11707
lowerneck -7.45063 -0.532755 1.55297
upperneck 46.4505 5.0156 -9.09046
head 19.6233 1.75054 -3.75969
rclavicle 3.81729e-014 2.5842e-015
rhumerus -32.0165 -16.8742 -63.4419
rradius 30.0418
rwrist 2.01873
rhand -31.6734 -6.17936
rfingers 7.12502
rthumb -4.93339 -36.1019
lclavicle 3.81729e-014 2.5842e-015
lhumerus -24.4608 -13.5607 78.2936
lradius 47.7622
lwrist 30.0694
lhand -21.948 12.9455
lfingers 7.12502
lthumb 4.45899 42.8785
rfemur -15.0176 -4.05676 22.3175
rtibia 24.42
rfoot -25.5163 5.88796
rtoes -1.93204
lfemur -13.8344 -23.0826 -4.14535
ltibia 22.5834
lfoot -39.773 14.3152
ltoes -20.3786
310
root 1.85868 19.6599 38.5634 2.21222 46.9305 -0.53773
lowerback 6.72832 0.99227 -2.19214
upperback -1.18215 1.18629 0.985863
thorax -5.07162 0.66662 2.12541
lowerneck -7.44381 -0.542746 1.59622
upperneck 46.4909 4.98599 -9.06214
head 19.645 1.75357 -3.7604
rclavicle -8.27255e-014 3.97569e-016
rhumerus -32.5274 -16.8703 -63.0191
rradius 30.1586
rwrist 1.96157
rhand -31.7708 -6.15266
rfingers 7.12502
rthumb -5.02739 -36.073
lclavicle -8.27255e-014 3.97569e-016
lhumerus -24.6672 -13.7603 78.5771
lradius 47.7748
lwrist 30.0574
lhand -21.2633 12.9814
lfingers 7.12502
lthumb 5.12016 42.8996
rfemur -14.9254 -4.10509 22.2802
rtibia 24.3185
rfoot -25.6009 5.84177
rtoes -1.85934
lfemur -13.8563 -22.7285 -4.34113
ltibia 22.7717
lfoot -39.7896 13.6335
ltoes -20.3456
311
root 1.7913 19.6606 38.6033 2.20516 47.0562 -0.441347
lowerback 6.66671 0.992442 -2.19671
upperback -1.21373 1.18774 0.995026
thorax -5.07012 0.667958 2.13797
lowerneck -7.43707 -0.5496 1.63981
upperneck 46.5305 4.96438 -9.04117
head 19.6679 1.75898 -3.76357
rclavicle -5.85048e-014 -1.39149e-015
rhumerus -33.0481 -16.8694 -62.5638
rradius 30.2514
rwrist 1.93521
rhand -31.8654 -6.13061
rfingers 7.12502
rthumb -5.11872 -36.0488
lclavicle -5.85048e-014 -1.39149e-015
lhumerus -24.862 -13.9337 78.863
lradius 47.7627
lwrist 30.016
lhand -20.4814 13.0024
lfingers 7.12502
lthumb 5.87509 42.901
rfemur -14.8372 -4.16479 22.2474
rtibia 24.2106
rfoot -25.6719 5.78826
rtoes -1.77929
lfemur -13.9138 -22.236 -4.60068
ltibia 23.1021
lfoot -39.7749 12.8803
ltoes -20.3333
312
root 1.72461 19.6626 38.6408 2.20649 47.1752 -0.338851
lowerback 6.60201 0.991493 -2.19625
upperback -1.24518 1.1882 1.00439
thorax -5.06654 0.668642 2.14805
lowerneck -7.42828 -0.555106 1.68044
upperneck 46.5694 4.9469 -9.02312
head 19.6903 1.76525 -3.76691
rclavicle 1.73564e-014 1.98785e-015
rhumerus -33.5861 -16.8857 -62.0691
rradius 30.3249
rwrist 1.93676
rhand -31.952 -6.11919
rfingers 7.12502
rthumb -5.20235 -36.0353
lclavicle 1.73564e-014 1.98785e-015
lhumerus -25.049 -14.0906 79.1508
lradius 47.7362
lwrist 29.9544
lhand -19.6281 13.0369
lfingers 7.12502
lthumb 6.69884 42.911
rfemur -14.7361 -4.2345 22.2174
rtibia 24.0512
rfoot -25.7054 5.70218
rtoes -1.71992
lfemur -13.9923 -21.5976 -4.93563
ltibia 23.5558
lfoot -39.7199 12.1304
ltoes -20.3606
313
root 1.65851 19.666 38.6757 2.21165 47.2914 -0.232884
lowerback 6.53809 0.986581 -2.1907
upperback -1.27679 1.18379 1.01393
thorax -5.06318 0.666779 2.15598
lowerneck -7.4153 -0.557813 1.72627
upperneck 46.6076 4.93463 -9.01056
head 19.7122 1.77398 -3.77309
rclavicle -7.72465e-014 -2.78299e-015
rhumerus -34.1394 -16.9174 -61.5371
rradius 30.3771
rwrist 1.95949
rhand -32.0317 -6.12164
rfingers 7.12502
rthumb -5.27932 -36.0359
lclavicle -7.72465e-014 -2.78299e-015
lhumerus -25.2263 -14.228 79.4366
lradius 47.6914
lwrist 29.8709
lhand -18.7113 13.0709
lfingers 7.12502
lthumb 7.58385 42.915
rfemur -14.6138 -4.30544 22.193
rtibia 23.8317
rfoot -25.7103 5.56825
rtoes -1.68796
lfemur -14.0869 -20.823 -5.34695
ltibia 24.1382
lfoot -39.6391 11.4406
ltoes -20.4384
314
root 1.59304 19.671 38.7081 2.22391 47.3983 -0.11521
lowerback 6.47589 0.980341 -2.18402
upperback -1.30697 1.17765 1.02306
thorax -5.05917 0.663997 2.16301
lowerneck -7.40226 -0.556623 1.76341
upperneck 46.6476 4.9297 -8.99452
head 19.7359 1.78455 -3.77472
rclavicle -5.01931e-014 -9.14409e-015
rhumerus -34.7076 -16.9605 -60.9688
rradius 30.4106
rwrist 1.97666
rhand -32.1207 -6.15012
rfingers 7.12502
rthumb -5.36531 -36.0622
lclavicle -5.01931e-014 -9.14409e-015
lhumerus -25.3941 -14.3524 79.7246
lradius 47.63
lwrist 29.7706
lhand -17.7651 13.1183
lfingers 7.12502
lthumb 8.49701 42.9274
rfemur -14.4851 -4.36957 22.168
rtibia 23.5896
rfoot -25.698 5.40161
rtoes -1.68176
lfemur -14.2048 -19.9304 -5.84047
ltibia 24.884
lfoot -39.5849 10.8332
ltoes -20.5398
